<svg width="52" height="41" viewBox="0 0 52 41" fill="none" xmlns="http://www.w3.org/2000/svg">
<path d="M32.673 37.0693V36.9166H23.0647V37.0693L23.0664 37.1448C23.0664 37.9905 22.7304 38.8016 22.1324 39.3996C21.5344 39.9976 20.7233 40.3335 19.8776 40.3335C19.0319 40.3335 18.2208 39.9976 17.6228 39.3996C17.0248 38.8016 16.6888 37.9905 16.6888 37.1448L16.6905 37.0659V36.9166H15.5952C15.1282 36.9166 14.6752 36.7569 14.3115 36.464C13.9478 36.1711 13.6952 35.7626 13.5957 35.3063L13.594 35.2929L7.1913 4.9769L1.72123 4.06606C1.20026 3.96083 0.740602 3.6572 0.439363 3.21932C0.138124 2.78145 0.0188981 2.24362 0.106875 1.71946C0.194852 1.1953 0.48314 0.725867 0.910834 0.410337C1.33853 0.0948062 1.87213 -0.0421095 2.39891 0.0285155L2.38884 0.0268381L9.23439 1.16748C10.0681 1.31006 10.7223 1.94077 10.8967 2.74929L10.8984 2.76271L12.0592 8.2378L32.0288 9.9018C31.9056 10.5578 31.8427 11.2237 31.841 11.8912V11.8979C31.841 12.5723 31.8997 13.2332 32.0138 13.8756L32.0037 13.8085C31.4541 13.9817 30.9876 14.3513 30.6934 14.8467C30.3991 15.3421 30.2977 15.9286 30.4085 16.4941L30.4068 16.479L31.6129 25.1848C31.6867 25.7433 31.9416 26.2332 32.314 26.6022C32.6529 26.9393 33.1175 27.1507 33.6325 27.1557H33.6341C33.7482 27.1557 33.8606 27.144 33.9679 27.1239L33.9562 27.1255C34.5281 26.9761 35.0219 26.6148 35.3374 26.1149C35.6529 25.615 35.7666 25.0139 35.6554 24.4333L35.6571 24.4484L34.9996 19.7147C36.0432 20.8005 37.2957 21.664 38.6817 22.2533C40.0677 22.8425 41.5585 23.1453 43.0646 23.1433C43.1367 23.1433 43.2089 23.1434 43.2793 23.1333L43.4353 23.1249L42.3131 29.6702C42.2862 29.8288 42.2042 29.9729 42.0814 30.077C41.9586 30.181 41.8031 30.2383 41.6421 30.2388H16.7073L17.2558 32.8338H41.003C41.5315 32.8548 42.0313 33.0793 42.398 33.4605C42.7646 33.8416 42.9696 34.3498 42.97 34.8786C42.9704 35.4075 42.7663 35.916 42.4003 36.2978C42.0343 36.6795 41.5348 36.9049 41.0064 36.9267H39.0505V37.0793C39.0505 37.9251 38.7146 38.7361 38.1166 39.3341C37.5185 39.9322 36.7075 40.2681 35.8618 40.2681C35.016 40.2681 34.205 39.9322 33.6069 39.3341C33.0089 38.7361 32.673 37.9251 32.673 37.0793V37.0693ZM34.9509 37.0693C34.9513 37.1945 34.9776 37.3182 35.0283 37.4327C35.0789 37.5472 35.1528 37.6499 35.2453 37.7343C35.3377 37.8188 35.4467 37.8831 35.5652 37.9232C35.6838 37.9633 35.8095 37.9784 35.9342 37.9674C36.0589 37.9565 36.18 37.9197 36.2897 37.8596C36.3995 37.7994 36.4956 37.717 36.5719 37.6178C36.6482 37.5185 36.703 37.4045 36.7329 37.2829C36.7629 37.1614 36.7672 37.0349 36.7458 36.9116V36.9166H34.9677C34.9587 36.967 34.9542 37.0181 34.9543 37.0693H34.9509ZM18.9685 37.0693C18.9688 37.1945 18.9951 37.3182 19.0458 37.4327C19.0965 37.5472 19.1704 37.6499 19.2628 37.7343C19.3552 37.8188 19.4642 37.8831 19.5828 37.9232C19.7014 37.9633 19.827 37.9784 19.9517 37.9674C20.0764 37.9565 20.1975 37.9197 20.3073 37.8596C20.417 37.7994 20.5131 37.717 20.5894 37.6178C20.6657 37.5185 20.7206 37.4045 20.7505 37.2829C20.7804 37.1614 20.7848 37.0349 20.7633 36.9116V36.9166H18.9836C18.9751 36.9659 18.9712 37.0159 18.9718 37.0659V37.0693H18.9685ZM25.455 13.7951C24.8829 13.9442 24.3889 14.3054 24.0734 14.8054C23.7578 15.3054 23.6443 15.9067 23.7558 16.4874L23.7541 16.4723L24.9602 25.1781C25.034 25.7366 25.289 26.2264 25.6614 26.5955C26.0002 26.9326 26.4648 27.144 26.9798 27.149H26.9815C27.0956 27.149 27.2079 27.1373 27.3153 27.1172L27.3036 27.1188C27.8755 26.9694 28.3692 26.6081 28.6847 26.1082C29.0002 25.6083 29.1139 25.0072 29.0028 24.4266L29.0045 24.4417L27.7984 15.7359C27.7288 15.1986 27.4821 14.6998 27.0972 14.3184C26.7469 13.9686 26.2738 13.7693 25.7788 13.7632H25.7771C25.6614 13.7632 25.549 13.775 25.4399 13.7968L25.4517 13.7951H25.455ZM18.8024 13.7951C18.2284 13.9435 17.7326 14.3055 17.4165 14.8071C17.1004 15.3088 16.9877 15.9122 17.1015 16.4941L17.0998 16.479L18.3059 25.1848C18.3797 25.7433 18.6347 26.2332 19.007 26.6022C19.3459 26.9393 19.8105 27.1507 20.3255 27.1557H20.3272C20.4412 27.1557 20.5536 27.144 20.661 27.1239L20.6492 27.1255C21.2217 26.9768 21.716 26.6157 22.032 26.1157C22.3479 25.6157 22.4616 25.0141 22.3501 24.4333L22.3518 24.4484L21.1441 15.7375C21.0745 15.2002 20.8278 14.7015 20.4429 14.3201C20.093 13.9696 19.6197 13.7703 19.1245 13.7649H19.1228C19.0087 13.7649 18.898 13.7766 18.7907 13.7968L18.8024 13.7951ZM33.5452 11.903C33.5457 9.37605 34.5499 6.95281 36.337 5.16633C37.2219 4.28175 38.2724 3.58013 39.4284 3.10152C40.5845 2.62291 41.8235 2.37668 43.0747 2.3769C44.3259 2.37712 45.5648 2.62378 46.7206 3.1028C47.8765 3.58182 48.9267 4.28381 49.8113 5.1687C50.6959 6.05359 51.3975 7.10404 51.8761 8.26008C52.3547 9.41613 52.6009 10.6551 52.6007 11.9063C52.6001 14.4337 51.5954 16.8573 49.8078 18.6439C48.0203 20.4305 45.5961 21.4339 43.0688 21.4332C40.5414 21.4326 38.1178 20.4279 36.3312 18.6403C34.5446 16.8528 33.5412 14.4286 33.5419 11.9013L33.5452 11.903ZM36.2744 11.903C36.2744 12.7958 36.4502 13.6798 36.7919 14.5047C37.1336 15.3295 37.6343 16.079 38.2657 16.7103C38.897 17.3416 39.6464 17.8424 40.4713 18.184C41.2961 18.5257 42.1802 18.7015 43.073 18.7015C43.9658 18.7015 44.8498 18.5257 45.6747 18.184C46.4995 17.8424 47.249 17.3416 47.8803 16.7103C48.5116 16.079 49.0124 15.3295 49.354 14.5047C49.6957 13.6798 49.8716 12.7958 49.8716 11.903C49.8718 10.0994 49.1555 8.36966 47.8804 7.09421C46.6053 5.81876 44.8757 5.10209 43.0721 5.10187C41.2686 5.10165 39.5388 5.81789 38.2634 7.09303C36.9879 8.36816 36.2713 10.0977 36.271 11.9013L36.2744 11.903ZM41.7092 14.6221V13.2667H40.3539C39.9917 13.2667 39.6445 13.1229 39.3884 12.8668C39.1323 12.6107 38.9885 12.2634 38.9885 11.9013C38.9885 11.5392 39.1323 11.1919 39.3884 10.9358C39.6445 10.6797 39.9917 10.5359 40.3539 10.5359H41.7092V9.18051C41.7092 8.81838 41.8531 8.47108 42.1092 8.21502C42.3652 7.95895 42.7125 7.81509 43.0747 7.81509C43.4368 7.81509 43.7841 7.95895 44.0402 8.21502C44.2962 8.47108 44.4401 8.81838 44.4401 9.18051V10.5359H45.7954C46.1576 10.5359 46.5049 10.6797 46.7609 10.9358C47.017 11.1919 47.1609 11.5392 47.1609 11.9013C47.1609 12.2634 47.017 12.6107 46.7609 12.8668C46.5049 13.1229 46.1576 13.2667 45.7954 13.2667H44.4401V14.6204C44.4401 14.9825 44.2962 15.3298 44.0402 15.5859C43.7841 15.8419 43.4368 15.9858 43.0747 15.9858C42.7125 15.9858 42.3652 15.8419 42.1092 15.5859C41.8531 15.3298 41.7092 14.9825 41.7092 14.6204V14.6221Z" fill="black"/>
</svg>
