<svg width="51" height="47" viewBox="0 0 51 47" fill="none" xmlns="http://www.w3.org/2000/svg">
<path d="M25.5 28.9167V1.83337M14.6667 9.95837H6.54167C5.10508 9.95837 3.72733 10.5291 2.7115 11.5449C1.69568 12.5607 1.125 13.9384 1.125 15.375V39.75C1.125 41.1866 1.69568 42.5644 2.7115 43.5802C3.72733 44.596 5.10508 45.1667 6.54167 45.1667H44.4583C45.8949 45.1667 47.2727 44.596 48.2885 43.5802C49.3043 42.5644 49.875 41.1866 49.875 39.75V15.375C49.875 13.9384 49.3043 12.5607 48.2885 11.5449C47.2727 10.5291 45.8949 9.95837 44.4583 9.95837H36.3333H14.6667ZM33.625 20.7917L25.5 28.9167L33.625 20.7917ZM25.5 28.9167L17.375 20.7917L25.5 28.9167Z" stroke="#006C84" stroke-width="2" stroke-linecap="round" stroke-linejoin="round"/>
</svg>
