<svg width="56" height="50" viewBox="0 0 56 50" fill="none" xmlns="http://www.w3.org/2000/svg">
<path d="M28.0001 49.108L27.0161 48.288C5.86012 31.068 0.120117 25 0.120117 15.16C0.120117 6.95999 6.68012 0.399994 14.8801 0.399994C21.6041 0.399994 25.3761 4.17199 28.0001 7.12399C30.6241 4.17199 34.3961 0.399994 41.1201 0.399994C49.3201 0.399994 55.8801 6.95999 55.8801 15.16C55.8801 25 50.1401 31.068 28.9841 48.288L28.0001 49.108ZM14.8801 3.67999C8.48412 3.67999 3.40012 8.76399 3.40012 15.16C3.40012 23.524 8.64812 29.1 28.0001 44.844C47.3521 29.1 52.6001 23.524 52.6001 15.16C52.6001 8.76399 47.5161 3.67999 41.1201 3.67999C35.3801 3.67999 32.2641 7.12399 29.8041 9.91199L28.0001 12.044L26.1961 9.91199C23.7361 7.12399 20.6201 3.67999 14.8801 3.67999Z" fill="#006C84"/>
</svg>
