<svg width="39" height="35" viewBox="0 0 39 35" fill="none" xmlns="http://www.w3.org/2000/svg">
<path d="M19.5001 34.258L18.8161 33.688C4.11012 21.718 0.120117 17.5 0.120117 10.66C0.120117 4.95999 4.68012 0.399994 10.3801 0.399994C15.0541 0.399994 17.6761 3.02199 19.5001 5.07399C21.3241 3.02199 23.9461 0.399994 28.6201 0.399994C34.3201 0.399994 38.8801 4.95999 38.8801 10.66C38.8801 17.5 34.8901 21.718 20.1841 33.688L19.5001 34.258ZM10.3801 2.67999C5.93412 2.67999 2.40012 6.21399 2.40012 10.66C2.40012 16.474 6.04812 20.35 19.5001 31.294C32.9521 20.35 36.6001 16.474 36.6001 10.66C36.6001 6.21399 33.0661 2.67999 28.6201 2.67999C24.6301 2.67999 22.4641 5.07399 20.7541 7.01199L19.5001 8.49399L18.2461 7.01199C16.5361 5.07399 14.3701 2.67999 10.3801 2.67999Z" fill="black"/>
</svg>
