<svg width="59" height="59" viewBox="0 0 59 59" fill="none" xmlns="http://www.w3.org/2000/svg">
<path d="M1.9375 0.875C1.42364 0.875 0.930832 1.07913 0.567481 1.44248C0.204129 1.80583 0 2.29864 0 2.8125C0 3.32636 0.204129 3.81917 0.567481 4.18252C0.930832 4.54587 1.42364 4.75 1.9375 4.75H6.23875L7.79262 10.9771L13.5974 41.919C13.6805 42.363 13.9161 42.764 14.2635 43.0527C14.6109 43.3414 15.0483 43.4996 15.5 43.5H19.375C17.3196 43.5 15.3483 44.3165 13.8949 45.7699C12.4415 47.2233 11.625 49.1946 11.625 51.25C11.625 53.3054 12.4415 55.2767 13.8949 56.7301C15.3483 58.1835 17.3196 59 19.375 59C21.4304 59 23.4017 58.1835 24.8551 56.7301C26.3085 55.2767 27.125 53.3054 27.125 51.25C27.125 49.1946 26.3085 47.2233 24.8551 45.7699C23.4017 44.3165 21.4304 43.5 19.375 43.5H46.5C44.4446 43.5 42.4733 44.3165 41.0199 45.7699C39.5665 47.2233 38.75 49.1946 38.75 51.25C38.75 53.3054 39.5665 55.2767 41.0199 56.7301C42.4733 58.1835 44.4446 59 46.5 59C48.5554 59 50.5267 58.1835 51.9801 56.7301C53.4335 55.2767 54.25 53.3054 54.25 51.25C54.25 49.1946 53.4335 47.2233 51.9801 45.7699C50.5267 44.3165 48.5554 43.5 46.5 43.5H50.375C50.8267 43.4996 51.2641 43.3414 51.6115 43.0527C51.9589 42.764 52.1945 42.363 52.2776 41.919L58.0901 10.919C58.1425 10.6394 58.1326 10.3516 58.0612 10.0763C57.9898 9.80087 57.8586 9.54459 57.677 9.32561C57.4954 9.10664 57.2678 8.93035 57.0104 8.80926C56.7529 8.68817 56.472 8.62526 56.1875 8.625H11.1988L9.62937 2.34362C9.52479 1.92429 9.283 1.55196 8.94246 1.28585C8.60192 1.01973 8.18218 0.875119 7.75 0.875H1.9375ZM17.1081 39.625L12.0203 12.5H53.8547L48.7669 39.625H17.1081ZM23.25 51.25C23.25 52.2777 22.8417 53.2633 22.115 53.99C21.3883 54.7167 20.4027 55.125 19.375 55.125C18.3473 55.125 17.3617 54.7167 16.635 53.99C15.9083 53.2633 15.5 52.2777 15.5 51.25C15.5 50.2223 15.9083 49.2367 16.635 48.51C17.3617 47.7833 18.3473 47.375 19.375 47.375C20.4027 47.375 21.3883 47.7833 22.115 48.51C22.8417 49.2367 23.25 50.2223 23.25 51.25ZM50.375 51.25C50.375 52.2777 49.9667 53.2633 49.24 53.99C48.5133 54.7167 47.5277 55.125 46.5 55.125C45.4723 55.125 44.4867 54.7167 43.76 53.99C43.0333 53.2633 42.625 52.2777 42.625 51.25C42.625 50.2223 43.0333 49.2367 43.76 48.51C44.4867 47.7833 45.4723 47.375 46.5 47.375C47.5277 47.375 48.5133 47.7833 49.24 48.51C49.9667 49.2367 50.375 50.2223 50.375 51.25Z" fill="#006C84"/>
</svg>
