<svg width="32" height="28" viewBox="0 0 32 28" fill="none" xmlns="http://www.w3.org/2000/svg">
<path d="M3.71901 0.281006L2.28001 1.72001L8.50001 7.90601L19.594 19L21.5 20.938L28.281 27.718L29.719 26.281L23.5 20.063C27.734 17.965 30.574 14.852 30.75 14.656L31.344 14L30.75 13.344C30.48 13.043 24.086 6.00001 16 6.00001C14.043 6.00001 12.195 6.43001 10.5 7.06301L3.71901 0.281006ZM16 8.00001C18.152 8.00001 20.188 8.60501 22 9.43801C22.6502 10.5127 22.9959 11.744 23 13C22.9994 14.7487 22.3412 16.4332 21.156 17.719L18.313 14.875C18.73 14.363 19 13.715 19 13C19 12.2044 18.6839 11.4413 18.1213 10.8787C17.5587 10.3161 16.7957 10 16 10C15.285 10 14.637 10.27 14.125 10.688L12.094 8.65601C13.336 8.27301 14.637 8.00001 16 8.00001ZM6.68701 8.90601C3.48001 10.879 1.39801 13.176 1.25001 13.344L0.656006 14L1.25001 14.656C1.50801 14.946 7.43001 21.426 15.063 21.938C15.371 21.968 15.683 22 16 22C16.316 22 16.629 21.969 16.938 21.937C17.7479 21.8874 18.5525 21.7727 19.344 21.594L17.562 19.812C17.0502 19.934 16.5261 19.9971 16 20C12.14 20 9.00001 16.86 9.00001 13C9.00001 12.469 9.07001 11.95 9.18801 11.437L6.68701 8.90601ZM7.25001 10.937C7.0866 11.6126 7.0027 12.3049 7.00001 13C6.99591 14.668 7.46169 16.3035 8.34401 17.719C6.5551 16.6814 4.89724 15.4328 3.40601 14C4.58818 12.8604 5.87522 11.8349 7.25001 10.937ZM24.75 10.937C26.124 11.8359 27.411 12.8614 28.594 14C27.695 14.867 25.918 16.438 23.625 17.75C24.5188 16.3266 24.9952 14.6808 25 13C25 12.3 24.91 11.61 24.75 10.937Z" fill="black"/>
</svg>
