<svg width="42" height="51" viewBox="0 0 42 51" fill="none" xmlns="http://www.w3.org/2000/svg">
<path d="M20.9999 50.8333C23.8416 50.8333 26.1666 48.5083 26.1666 45.6667H15.8333C15.8333 48.5083 18.1583 50.8333 20.9999 50.8333ZM36.4999 35.3333V22.4167C36.4999 14.4858 32.2891 7.84668 24.8749 6.09001V4.33334C24.8749 2.18918 23.1441 0.458344 20.9999 0.458344C18.8558 0.458344 17.1249 2.18918 17.1249 4.33334V6.09001C9.73659 7.84668 5.49992 14.46 5.49992 22.4167V35.3333L0.333252 40.5V43.0833H41.6666V40.5L36.4999 35.3333ZM31.3333 37.9167H10.6666V22.4167C10.6666 16.01 14.5674 10.7917 20.9999 10.7917C27.4324 10.7917 31.3333 16.01 31.3333 22.4167V37.9167Z" fill="#006C84"/>
</svg>
