<svg width="49" height="49" viewBox="0 0 49 49" fill="none" xmlns="http://www.w3.org/2000/svg">
<path d="M24.5001 0.166656C27.7269 0.166656 30.8215 1.4485 33.1032 3.73019C35.3849 6.01188 36.6667 9.10652 36.6667 12.3333C36.6667 15.5601 35.3849 18.6548 33.1032 20.9365C30.8215 23.2181 27.7269 24.5 24.5001 24.5C21.2733 24.5 18.1786 23.2181 15.8969 20.9365C13.6153 18.6548 12.3334 15.5601 12.3334 12.3333C12.3334 9.10652 13.6153 6.01188 15.8969 3.73019C18.1786 1.4485 21.2733 0.166656 24.5001 0.166656ZM24.5001 6.24999C22.8867 6.24999 21.3394 6.89091 20.1985 8.03176C19.0577 9.1726 18.4167 10.7199 18.4167 12.3333C18.4167 13.9467 19.0577 15.494 20.1985 16.6349C21.3394 17.7757 22.8867 18.4167 24.5001 18.4167C26.1135 18.4167 27.6608 17.7757 28.8016 16.6349C29.9425 15.494 30.5834 13.9467 30.5834 12.3333C30.5834 10.7199 29.9425 9.1726 28.8016 8.03176C27.6608 6.89091 26.1135 6.24999 24.5001 6.24999ZM24.5001 27.5417C32.6213 27.5417 48.8334 31.5871 48.8334 39.7083V48.8333H0.166748V39.7083C0.166748 31.5871 16.3788 27.5417 24.5001 27.5417ZM24.5001 33.3208C15.4663 33.3208 5.94591 37.7617 5.94591 39.7083V43.0542H43.0542V39.7083C43.0542 37.7617 33.5338 33.3208 24.5001 33.3208Z" fill="#006C84"/>
</svg>
